<svg width="232" height="232" viewBox="0 0 232 232" fill="none" xmlns="http://www.w3.org/2000/svg">
<path fill-rule="evenodd" clip-rule="evenodd" d="M131.478 68.8611C131.85 68.3294 132.583 68.2002 133.115 68.5725L138.315 72.2138C138.847 72.5861 138.976 73.319 138.604 73.8507L129.733 86.519C134.312 87.982 137.432 89.56 137.432 89.56C137.432 89.56 129.807 102.677 116.873 102.677C103.94 102.677 94.7492 90.4515 94.7492 90.4515C94.7492 90.4515 98.0079 88.3719 102.839 86.5882L93.1221 75.0086C92.7048 74.5114 92.7697 73.77 93.2669 73.3528L98.1301 69.2721C98.6273 68.8549 99.3686 68.9197 99.7859 69.417L112.252 84.2739C113.372 84.1472 114.513 84.0764 115.665 84.0764C117.32 84.0764 118.973 84.2022 120.587 84.4157L131.478 68.8611ZM97.4144 103.298C93.9629 100.833 88.7403 94.3989 88.7403 94.3989C88.7403 94.3989 75.3999 104.97 75.3999 127.386C75.3999 149.801 98.4632 163.292 98.4632 163.292C98.4632 163.292 109.482 152.164 112.188 138.057C114.893 123.951 108.186 108.287 108.186 108.287C108.186 108.287 100.866 105.763 97.4144 103.298ZM134.585 103.298C138.037 100.833 143.26 94.3989 143.26 94.3989C143.26 94.3989 156.6 104.97 156.6 127.386C156.6 149.801 133.537 163.292 133.537 163.292C133.537 163.292 122.517 152.164 119.812 138.057C117.107 123.951 123.814 108.287 123.814 108.287C123.814 108.287 131.134 105.763 134.585 103.298Z" fill="#AFC836"/>
</svg>
