<svg width="231" height="232" viewBox="0 0 231 232" fill="none" xmlns="http://www.w3.org/2000/svg">
<path fill-rule="evenodd" clip-rule="evenodd" d="M155.925 116C155.925 138.423 137.826 156.6 115.5 156.6C108.802 156.6 102.484 154.964 96.9209 152.068C102.169 151.858 107.084 150.119 111.35 147.219C112.886 147.455 114.46 147.578 116.061 147.578C133.116 147.578 146.942 133.692 146.942 116.564C146.942 99.4354 133.116 85.55 116.061 85.55C114.917 85.55 113.787 85.6125 112.675 85.7343C108.115 82.2641 102.721 80.1637 96.9209 79.9325C102.484 77.0363 108.802 75.4 115.5 75.4C137.826 75.4 155.925 93.5773 155.925 116Z" fill="#595761"/>
</svg>
