<svg width="232" height="232" viewBox="0 0 232 232" fill="none" xmlns="http://www.w3.org/2000/svg">
<path fill-rule="evenodd" clip-rule="evenodd" d="M120.526 115.797C121.155 115.414 121.689 114.61 122.119 113.717C127.783 116.031 131.762 121.501 131.762 127.879C131.762 136.353 124.739 143.222 116.075 143.222C112.519 143.222 109.239 142.064 106.607 140.113C105.744 139.705 105.034 139.312 104.453 138.991L104.453 138.991L104.453 138.991L104.453 138.991C103.552 138.492 102.961 138.166 102.59 138.217C101.508 138.366 101.823 139.361 102.108 140.266C102.302 140.88 102.483 141.452 102.203 141.688C101.91 141.935 100.963 141.032 99.8555 139.976C98.3483 138.539 96.5452 136.82 95.695 137.336C95.0226 137.745 95.6754 138.852 96.4743 140.208L96.5336 140.309C96.8711 140.882 97.2622 141.465 97.6191 141.998C98.3446 143.08 98.929 143.952 98.6365 144.1C98.2832 144.278 95.8208 142.616 93.7456 140.309C92.9446 139.418 92.1687 138.453 91.4478 137.556L91.4478 137.555C89.8697 135.592 88.5549 133.956 87.8169 134.15C86.929 134.383 87.6007 136.214 88.5875 137.977C89.049 138.801 89.5919 139.64 90.0619 140.367L90.062 140.367L90.062 140.367C90.7929 141.497 91.3477 142.354 91.1464 142.46C90.8749 142.602 88.4858 140.272 86.8632 137.336C85.8994 135.592 85.0901 133.665 84.435 132.105C83.7244 130.413 83.1952 129.153 82.8467 129.026C81.6358 128.586 81.6358 131.054 82.1215 134.618C82.1848 135.082 82.2791 135.57 82.3953 136.066C87.1049 151.305 101.572 162.4 118.69 162.4C139.627 162.4 156.6 145.8 156.6 125.322C156.6 105.832 141.225 89.8541 121.69 88.3583C121.714 87.4401 122.194 85.6194 122.194 85.6194C122.194 85.6194 125.642 77.2754 125.825 75.4924C125.837 75.3741 125.851 75.2455 125.866 75.1085C126.081 73.182 126.481 69.6 123.399 69.6C121.753 69.6 120.988 70.8243 120.113 72.2245C119.777 72.762 119.425 73.3255 119 73.8555C115.943 77.6735 110.802 82.4413 107.887 84.9814C101.725 90.3503 95.6801 94.7626 92.1546 97.336C90.5509 98.5065 89.4686 99.2965 89.1337 99.623C86.6095 102.084 77.5593 118.408 77.5593 118.408C77.5593 118.408 74.6326 123.646 75.6728 124.708C76.7131 125.77 79.2218 125.526 79.2218 125.526C79.2218 125.526 112.923 117.795 115.941 117.185C116.753 117.021 117.327 116.926 117.767 116.854L117.767 116.853C118.962 116.656 119.177 116.621 120.526 115.797ZM96.6981 105.862C94.8891 107.581 91.8888 111.686 91.8888 111.686C91.8888 111.686 97.4648 112.029 100.536 109.11C103.607 106.191 102.903 101.216 102.903 101.216C102.903 101.216 98.5071 104.142 96.6981 105.862Z" fill="#1A5373"/>
</svg>
