<svg width="231" height="232" viewBox="0 0 231 232" fill="none" xmlns="http://www.w3.org/2000/svg">
<path fill-rule="evenodd" clip-rule="evenodd" d="M89.0381 142.404L103.054 138.322L115.288 160.788C115.38 160.956 115.621 160.956 115.713 160.788L127.946 138.322L141.962 142.404C142.146 142.457 142.317 142.286 142.263 142.102L138.2 128.309L159.943 116.366C160.111 116.274 160.111 116.031 159.943 115.939L138.018 103.896L142.263 89.4859C142.317 89.3019 142.146 89.1308 141.962 89.1844L127.609 93.3642L115.713 71.5176C115.621 71.349 115.38 71.349 115.288 71.5176L103.391 93.3642L89.0381 89.1844C88.854 89.1308 88.6834 89.3019 88.7376 89.4859L92.9826 103.896L71.0576 115.939C70.8897 116.031 70.8897 116.274 71.0576 116.366L92.8008 128.309L88.7376 142.102C88.6834 142.286 88.854 142.457 89.0381 142.404ZM100.156 116.484L110.014 121.899L115.405 131.799C115.497 131.968 115.738 131.968 115.83 131.799L121.221 121.899L131.079 116.484C131.247 116.392 131.247 116.149 131.079 116.057L121.221 110.642L115.83 100.742C115.738 100.573 115.497 100.573 115.405 100.742L110.014 110.642L100.156 116.057C99.9879 116.149 99.9879 116.392 100.156 116.484Z" fill="#EC95E5"/>
</svg>
