<svg width="232" height="232" viewBox="0 0 232 232" fill="none" xmlns="http://www.w3.org/2000/svg">
<path fill-rule="evenodd" clip-rule="evenodd" d="M87.2108 77.15C87.2108 76.1835 87.9943 75.4 88.9608 75.4H104.654C105.526 75.4 106.25 76.0391 106.382 76.8748C106.478 76.8585 106.577 76.85 106.677 76.85H122.37C123.336 76.85 124.12 77.6335 124.12 78.6V81.2H138.61C139.576 81.2 140.36 81.9835 140.36 82.95V87H144.515H154.85C155.816 87 156.6 87.7835 156.6 88.75V125.425V130.539C156.6 131.057 156.371 131.542 155.985 131.87C152.637 149.218 136.009 162.4 116 162.4C93.5771 162.4 75.3999 145.846 75.3999 125.425C75.3999 115.568 79.6352 106.612 86.5389 99.9834C86.5217 109.593 86.684 119.528 87.4322 119.357C89.6816 118.845 87.4322 81.3867 87.4322 81.3867L87.2108 81.7059V77.15Z" fill="#68292D"/>
</svg>
