<svg width="232" height="232" viewBox="0 0 232 232" fill="none" xmlns="http://www.w3.org/2000/svg">
<path fill-rule="evenodd" clip-rule="evenodd" d="M130.416 141.752C131.477 137.87 129.417 129.89 129.417 129.89C129.417 129.89 127.922 136.391 125.587 138.794C123.595 140.844 121.154 142.265 117.653 142.639C120.515 141.248 122.484 138.35 122.484 134.999C122.484 130.296 118.605 126.484 113.821 126.484C109.036 126.484 105.158 130.296 105.158 134.999C105.158 136.284 105.447 137.502 105.965 138.594C102.973 136.21 102.502 132.388 102.502 132.388C102.502 132.388 99.1609 146.261 108.368 152.787C117.575 159.313 135.611 153.704 135.611 153.704C135.611 153.704 109.8 171.865 90.6742 152.099C74.1984 135.072 86.3739 112.655 86.3739 112.655C86.3739 112.655 85.8481 114.734 85.8481 117.148C85.8481 119.562 87.1569 121.399 87.1569 121.399C87.1569 121.399 91.0611 113.17 94.0995 109.823C96.9752 106.656 100.58 104.087 103.693 101.868C106.09 100.16 108.196 98.6594 109.454 97.2531C116.38 89.5078 112.133 75.4 112.133 75.4C112.133 75.4 119.941 82.2837 122.121 91.174C122.952 94.5629 122.418 98.4187 121.94 101.867C121.164 107.464 120.537 111.987 126.142 111.694C135.201 111.219 127.329 97.2531 127.329 97.2531C127.329 97.2531 147.878 108.053 146.343 126.943C144.808 145.832 123.882 150.126 123.882 150.126C123.882 150.126 129.354 145.634 130.416 141.752Z" fill="#FB9B51"/>
</svg>
