<svg width="232" height="232" viewBox="0 0 232 232" fill="none" xmlns="http://www.w3.org/2000/svg">
<path fill-rule="evenodd" clip-rule="evenodd" d="M116 156.6C138.423 156.6 156.6 138.423 156.6 116C156.6 93.5773 138.423 75.4 116 75.4C93.5771 75.4 75.3999 93.5773 75.3999 116C75.3999 138.423 93.5771 156.6 116 156.6ZM103.947 116.418C107.45 116.418 110.291 113.636 110.291 110.203L101.739 110.203C101.207 110.203 100.775 109.772 100.775 109.239V104.82C98.8787 105.895 97.603 107.903 97.603 110.203C97.603 113.636 100.443 116.418 103.947 116.418ZM120.441 110.203C120.441 113.636 123.281 116.418 126.784 116.418C130.288 116.418 133.128 113.636 133.128 110.203C133.128 107.903 131.852 105.895 129.956 104.82V109.239C129.956 109.772 129.524 110.203 128.992 110.203L120.441 110.203Z" fill="#516AAC"/>
</svg>
