<svg width="232" height="232" viewBox="0 0 232 232" fill="none" xmlns="http://www.w3.org/2000/svg">
<path fill-rule="evenodd" clip-rule="evenodd" d="M90.9748 153.692C105.29 162.777 126.712 159.094 141.803 144.003C158.791 127.015 161.324 102.005 147.46 88.1409C133.596 74.277 108.586 76.8094 91.5978 93.7972C74.61 110.785 72.0776 135.795 85.9415 149.659C86.204 149.922 86.4705 150.178 86.7409 150.429L98.2189 136.266L98.2189 120.632L102.04 132.388L110.283 123.096L108.674 112.448L113.244 118.897L125.079 105.622L116.759 120.632L125.079 123.096L114.557 125.401L105.313 134.812L119.858 136.266L102.04 140.113L90.9748 153.692Z" fill="#3A8D49"/>
</svg>
