<svg width="231" height="232" viewBox="0 0 231 232" fill="none" xmlns="http://www.w3.org/2000/svg">
<path fill-rule="evenodd" clip-rule="evenodd" d="M91.2027 144.752C91.0639 144.752 90.9669 144.614 91.013 144.484L113.265 81.3342C113.294 81.2538 113.37 81.2 113.455 81.2H137.099C137.185 81.2 137.261 81.2542 137.289 81.3351L159.211 144.484C159.257 144.615 159.16 144.752 159.021 144.752H91.6395H91.2027ZM71.944 145C71.8037 145 71.7065 144.86 71.7555 144.729L88.2895 100.396C88.3188 100.317 88.3939 100.265 88.4779 100.265H102.599C102.738 100.265 102.835 100.404 102.788 100.535L86.8002 144.867C86.7715 144.947 86.6958 145 86.611 145H71.944Z" fill="#9D5B2F"/>
</svg>
