<svg width="232" height="232" viewBox="0 0 232 232" fill="none" xmlns="http://www.w3.org/2000/svg">
<path fill-rule="evenodd" clip-rule="evenodd" d="M140.087 74.4473L140.389 100.998L117.232 112.115L116.946 87.0458L140.087 74.4473Z" fill="#70CCBD"/>
<path fill-rule="evenodd" clip-rule="evenodd" d="M163.301 116.284L140.377 129.397L117.439 116.264L140.365 104.221L163.301 116.284Z" fill="#70CCBD"/>
<path fill-rule="evenodd" clip-rule="evenodd" d="M113.361 116.284L90.4364 129.397L67.4983 116.264L90.4246 104.221L113.361 116.284Z" fill="#70CCBD"/>
<path fill-rule="evenodd" clip-rule="evenodd" d="M90.1791 74.3385L113.973 86.1228L113.365 111.803L90.8988 100.677L90.1791 74.3385Z" fill="#70CCBD"/>
<path fill-rule="evenodd" clip-rule="evenodd" d="M140.735 157.828L116.941 146.044L117.549 120.363L140.015 131.49L140.735 157.828Z" fill="#70CCBD"/>
<path fill-rule="evenodd" clip-rule="evenodd" d="M91.0009 158.067L90.6985 131.517L113.856 120.4L114.142 145.469L91.0009 158.067Z" fill="#70CCBD"/>
</svg>
