<svg width="231" height="232" viewBox="0 0 231 232" fill="none" xmlns="http://www.w3.org/2000/svg">
<path fill-rule="evenodd" clip-rule="evenodd" d="M99.0111 162.4C103.101 162.4 106.689 159.497 108.699 155.137C110.71 159.497 114.297 162.4 118.388 162.4C122.116 162.4 125.427 159.988 127.506 156.258C129.586 159.988 132.896 162.4 136.625 162.4C142.919 162.4 148.023 155.524 148.023 147.042C148.023 145.371 147.824 143.762 147.458 142.256C156.206 135.231 161.7 125.081 161.7 113.794C161.7 92.5896 142.309 75.4 118.388 75.4C94.4669 75.4 75.0752 92.5896 75.0752 113.794C75.0752 124.674 80.1803 134.496 88.3829 141.483C87.8857 143.207 87.613 145.082 87.613 147.042C87.613 155.524 92.7161 162.4 99.0111 162.4ZM117.818 134.048C131.981 134.048 143.463 125.321 143.463 114.555C143.463 103.79 131.981 95.063 117.818 95.063C103.654 95.063 92.1722 103.79 92.1722 114.555C92.1722 125.321 103.654 134.048 117.818 134.048Z" fill="#A864C7"/>
</svg>
