<svg width="232" height="232" viewBox="0 0 232 232" fill="none" xmlns="http://www.w3.org/2000/svg">
<path fill-rule="evenodd" clip-rule="evenodd" d="M147.752 142.832C147.752 142.832 137.513 151.043 117.138 147.645C101.68 145.067 93.4355 128.027 93.4355 118.867C93.4355 97.1509 109.508 92.2091 120.375 92.2091C131.241 92.2091 138.33 102.803 138.33 111.006C138.33 119.208 132.528 126.382 123.5 126.382C114.472 126.382 111.798 120.044 111.798 114.217C111.798 108.39 116.513 106.337 120.812 106.337C125.112 106.337 126.584 110.008 126.584 113.163C126.584 116.318 124.136 117.448 122.094 117.448C120.053 117.448 119.851 116.418 119.069 115.335C118.288 114.253 120.066 110.155 117.138 110.155C114.211 110.155 113.665 114.866 113.665 114.866C113.665 114.866 114.732 123.958 123.5 123.801C132.268 123.644 136.427 116.866 135.218 110.155C134.01 103.444 127.497 96.313 116.066 97.754C104.636 99.195 99.9687 110.744 102.026 123.087C104.083 135.429 118.869 142.581 130.495 140.008C142.121 137.435 153.7 129.018 153.7 107.679C153.7 86.3396 135.218 73.5127 113.181 75.6267C91.1437 77.7406 77.4639 97.0071 78.3395 120.156C79.2151 143.305 101.181 155.913 119.755 156.563C138.33 157.213 149.716 146.461 149.716 146.461C149.716 146.461 152.277 144.177 151.273 142.394C150.269 140.611 147.752 142.832 147.752 142.832Z" fill="#EC8CE5"/>
</svg>
