<svg width="232" height="232" viewBox="0 0 232 232" fill="none" xmlns="http://www.w3.org/2000/svg">
<path fill-rule="evenodd" clip-rule="evenodd" d="M138.13 117.241C138.101 117.201 138.089 117.151 138.097 117.102L143.234 87.1518C143.249 87.0641 143.325 87 143.414 87H144.808C144.887 87 144.958 87.0517 144.982 87.1276L156.562 123.793C156.585 123.866 156.56 123.945 156.5 123.992L148.122 130.533C148.041 130.596 147.923 130.58 147.862 130.497L138.13 117.241ZM75.3999 137.06C75.3999 137.139 75.4507 137.209 75.5258 137.233L93.0484 142.963C93.1026 142.98 93.162 142.972 93.2089 142.939L132.657 115.705C132.699 115.676 132.727 115.632 132.734 115.582L136.941 87.355C136.957 87.2447 136.872 87.1454 136.76 87.1454H101.965C101.911 87.1454 101.859 87.1697 101.825 87.2115L75.4419 119.038C75.4148 119.071 75.3999 119.112 75.3999 119.155V137.06ZM100.497 144.461L119.761 150.771C119.816 150.789 119.877 150.78 119.924 150.746L142.763 134.364C142.843 134.306 142.863 134.195 142.808 134.113L134.347 121.523C134.29 121.438 134.176 121.416 134.092 121.474L100.497 144.461Z" fill="#C5B489"/>
</svg>
