<svg width="231" height="232" viewBox="0 0 231 232" fill="none" xmlns="http://www.w3.org/2000/svg">
<path fill-rule="evenodd" clip-rule="evenodd" d="M71.9551 119.109C71.8874 118.993 71.8874 118.849 71.955 118.733L93.7206 81.3849C93.7873 81.2704 93.9099 81.2 94.0424 81.2H137.183C137.316 81.2 137.44 81.2711 137.506 81.3864L159.033 118.735C159.099 118.85 159.099 118.992 159.033 119.107L137.506 156.414C137.44 156.529 137.317 156.6 137.183 156.6H94.0423C93.9098 156.6 93.7873 156.53 93.7206 156.415L71.9551 119.109ZM115.5 139.2C126.663 139.2 135.712 130.111 135.712 118.9C135.712 107.689 126.663 98.6 115.5 98.6C104.337 98.6 95.2873 107.689 95.2873 118.9C95.2873 130.111 104.337 139.2 115.5 139.2Z" fill="#52869D"/>
</svg>
